Figtree-Black.ufo
<glyph name="comma" format="2">
  <advance width="286"/>
  <unicode hex="002C"/>
  <outline>
    <contour>
      <point x="18" y="-113" type="line"/>
      <point x="148" y="-113" type="line"/>
      <point x="264" y="146" type="line"/>
      <point x="84" y="146" type="line"/>
    </contour>
  </outline>
</glyph>
<glyph name="period" format="2">
  <advance width="286"/>
  <unicode hex="002E"/>
  <outline>
    <contour>
      <point x="143" y="-15" type="curve" smooth="yes"/>
      <point x="199" y="-15"/>
      <point x="246" y="32"/>
      <point x="246" y="88" type="curve" smooth="yes"/>
      <point x="246" y="144"/>
      <point x="199" y="191"/>
      <point x="143" y="191" type="curve" smooth="yes"/>
      <point x="87" y="191"/>
      <point x="40" y="144"/>
      <point x="40" y="88" type="curve" smooth="yes"/>
      <point x="40" y="32"/>
      <point x="87" y="-15"/>
    </contour>
  </outline>
</glyph>
<glyph name="slash" format="2">
  <advance width="472"/>
  <unicode hex="002F"/>
  <outline>
    <contour>
      <point x="15" y="-84" type="line"/>
      <point x="183" y="-84" type="line"/>
      <point x="457" y="747" type="line"/>
      <point x="291" y="747" type="line"/>
    </contour>
  </outline>
</glyph>
<glyph name="colon" format="2">
  <advance width="346"/>
  <unicode hex="003A"/>
  <outline>
    <contour>
      <point x="173" y="294" type="curve" smooth="yes"/>
      <point x="229" y="294"/>
      <point x="276" y="341"/>
      <point x="276" y="397" type="curve" smooth="yes"/>
      <point x="276" y="453"/>
      <point x="229" y="500"/>
      <point x="173" y="500" type="curve" smooth="yes"/>
      <point x="117" y="500"/>
      <point x="70" y="453"/>
      <point x="70" y="397" type="curve" smooth="yes"/>
      <point x="70" y="341"/>
      <point x="117" y="294"/>
    </contour>
    <contour>
      <point x="173" y="-1" type="curve" smooth="yes"/>
      <point x="229" y="-1"/>
      <point x="276" y="46"/>
      <point x="276" y="102" type="curve" smooth="yes"/>
      <point x="276" y="158"/>
      <point x="229" y="205"/>
      <point x="173" y="205" type="curve" smooth="yes"/>
      <point x="117" y="205"/>
      <point x="70" y="158"/>
      <point x="70" y="102" type="curve" smooth="yes"/>
      <point x="70" y="46"/>
      <point x="117" y="-1"/>
    </contour>
  </outline>
</glyph>
<glyph name="semicolon" format="2">
  <advance width="347"/>
  <unicode hex="003B"/>
  <outline>
    <contour>
      <point x="174" y="290" type="curve" smooth="yes"/>
      <point x="230" y="290"/>
      <point x="277" y="337"/>
      <point x="277" y="393" type="curve" smooth="yes"/>
      <point x="277" y="449"/>
      <point x="230" y="496"/>
      <point x="174" y="496" type="curve" smooth="yes"/>
      <point x="118" y="496"/>
      <point x="71" y="449"/>
      <point x="71" y="393" type="curve" smooth="yes"/>
      <point x="71" y="337"/>
      <point x="118" y="290"/>
    </contour>
    <component base="comma" xOffset="10"/>
  </outline>
</glyph>
<glyph name="equal" format="2">
  <advance width="560"/>
  <unicode hex="003D"/>
  <outline>
    <contour>
      <point x="80" y="328" type="line"/>
      <point x="480" y="328" type="line"/>
      <point x="480" y="467" type="line"/>
      <point x="80" y="467" type="line"/>
    </contour>
    <contour>
      <point x="80" y="128" type="line"/>
      <point x="480" y="128" type="line"/>
      <point x="480" y="267" type="line"/>
      <point x="80" y="267" type="line"/>
    </contour>
  </outline>
</glyph>
<glyph name="question" format="2">
  <advance width="522"/>
  <unicode hex="003F"/>
  <outline>
    <contour>
      <point x="149" y="284" type="line"/>
      <point x="263" y="284" type="line" smooth="yes"/>
      <point x="401" y="284"/>
      <point x="497" y="359"/>
      <point x="497" y="478" type="curve" smooth="yes"/>
      <point x="497" y="615"/>
      <point x="392" y="712"/>
      <point x="244" y="712" type="curve" smooth="yes"/>
      <point x="125" y="712"/>
      <point x="41" y="649"/>
      <point x="15" y="548" type="curve"/>
      <point x="176" y="505" type="line"/>
      <point x="186" y="532"/>
      <point x="210" y="552"/>
      <point x="244" y="552" type="curve" smooth="yes"/>
      <point x="293" y="552"/>
      <point x="327" y="521"/>
      <point x="327" y="478" type="curve" smooth="yes"/>
      <point x="327" y="423"/>
      <point x="290" y="402"/>
      <point x="237" y="396" type="curve" smooth="yes"/>
      <point x="144" y="387" type="line"/>
    </contour>
    <contour>
      <point x="235" y="-15" type="curve" smooth="yes"/>
      <point x="291" y="-15"/>
      <point x="338" y="32"/>
      <point x="338" y="88" type="curve" smooth="yes"/>
      <point x="338" y="144"/>
      <point x="291" y="191"/>
      <point x="235" y="191" type="curve" smooth="yes"/>
      <point x="179" y="191"/>
      <point x="132" y="144"/>
      <point x="132" y="88" type="curve" smooth="yes"/>
      <point x="132" y="32"/>
      <point x="179" y="-15"/>
    </contour>
    <contour>
      <point x="151" y="213" type="line"/>
      <point x="319" y="213" type="line"/>
      <point x="324" y="342" type="line"/>
      <point x="146" y="342" type="line"/>
    </contour>
  </outline>
</glyph>
<glyph name="B" format="2">
  <advance width="614"/>
  <unicode hex="0042"/>
  <outline>
    <contour>
      <point x="109" y="0" type="line"/>
      <point x="347" y="0" type="line" smooth="yes"/>
      <point x="489" y="0"/>
      <point x="589" y="74"/>
      <point x="589" y="208" type="curve" smooth="yes"/>
      <point x="589" y="371"/>
      <point x="440" y="421"/>
      <point x="230" y="421" type="curve"/>
      <point x="109" y="426" type="line"/>
      <point x="109" y="288" type="line"/>
      <point x="325" y="288" type="line" smooth="yes"/>
      <point x="369" y="289"/>
      <point x="397" y="264"/>
      <point x="397" y="227" type="curve" smooth="yes"/>
      <point x="397" y="190"/>
      <point x="369" y="163"/>
      <point x="325" y="163" type="curve" smooth="yes"/>
      <point x="109" y="163" type="line"/>
    </contour>
    <contour>
      <point x="60" y="0" type="line"/>
      <point x="240" y="0" type="line"/>
      <point x="240" y="700" type="line"/>
      <point x="60" y="700" type="line"/>
    </contour>
    <contour>
      <point x="101" y="276" type="line"/>
      <point x="229" y="294" type="line"/>
      <point x="423" y="294"/>
      <point x="561" y="391"/>
      <point x="561" y="493" type="curve" smooth="yes"/>
      <point x="561" y="635"/>
      <point x="458" y="701"/>
      <point x="312" y="701" type="curve" smooth="yes"/>
      <point x="101" y="698" type="line"/>
      <point x="101" y="557" type="line"/>
      <point x="299" y="557" type="line" smooth="yes"/>
      <point x="341" y="558"/>
      <point x="371" y="535"/>
      <point x="371" y="496" type="curve" smooth="yes"/>
      <point x="371" y="457"/>
      <point x="341" y="435"/>
      <point x="299" y="435" type="curve" smooth="yes"/>
      <point x="101" y="435" type="line"/>
    </contour>
  </outline>
</glyph>
<glyph name="G" format="2">
  <advance width="727"/>
  <unicode hex="0047"/>
  <anchor x="393" y="0" name="bottom"/>
  <anchor x="393" y="700" name="top"/>
  <outline>
    <contour>
      <point x="393" y="-12" type="curve" smooth="yes"/>
      <point x="580" y="-12"/>
      <point x="712" y="93"/>
      <point x="712" y="306" type="curve"/>
      <point x="536" y="273" type="line"/>
      <point x="536" y="202"/>
      <point x="478" y="156"/>
      <point x="398" y="156" type="curve" smooth="yes"/>
      <point x="285" y="156"/>
      <point x="215" y="237"/>
      <point x="215" y="350" type="curve" smooth="yes"/>
      <point x="215" y="463"/>
      <point x="289" y="542"/>
      <point x="393" y="542" type="curve" smooth="yes"/>
      <point x="444" y="542"/>
      <point x="499" y="511"/>
      <point x="527" y="467" type="curve"/>
      <point x="681" y="558" type="line"/>
      <point x="625" y="647"/>
      <point x="535" y="712"/>
      <point x="393" y="712" type="curve" smooth="yes"/>
      <point x="177" y="712"/>
      <point x="25" y="562"/>
      <point x="25" y="350" type="curve" smooth="yes"/>
      <point x="25" y="138"/>
      <point x="177" y="-12"/>
    </contour>
    <contour>
      <point x="380" y="252" type="line"/>
      <point x="607" y="252" type="line"/>
      <point x="712" y="289" type="line"/>
      <point x="712" y="392" type="line"/>
      <point x="380" y="392" type="line"/>
    </contour>
  </outline>
</glyph>
<glyph name="K" format="2">
  <advance width="718"/>
  <unicode hex="004B"/>
  <anchor x="359" y="0" name="bottom"/>
  <anchor x="359" y="700" name="top"/>
  <outline>
    <contour>
      <point x="164" y="119" type="line"/>
      <point x="699" y="700" type="line"/>
      <point x="456" y="700" type="line"/>
      <point x="164" y="378" type="line"/>
    </contour>
    <contour>
      <point x="60" y="0" type="line"/>
      <point x="245" y="0" type="line"/>
      <point x="245" y="700" type="line"/>
      <point x="60" y="700" type="line"/>
    </contour>
    <contour>
      <point x="478" y="0" type="line"/>
      <point x="708" y="0" type="line"/>
      <point x="346" y="464" type="line"/>
      <point x="207" y="356" type="line"/>
    </contour>
  </outline>
</glyph>
<glyph name="M" format="2">
  <advance width="868"/>
  <unicode hex="004D"/>
  <outline>
    <contour>
      <point x="60" y="0" type="line"/>
      <point x="245" y="0" type="line"/>
      <point x="245" y="700" type="line"/>
      <point x="60" y="700" type="line"/>
    </contour>
    <contour>
      <point x="435" y="140" type="line"/>
      <point x="529" y="309" type="line"/>
      <point x="265" y="700" type="line"/>
      <point x="151" y="700" type="line"/>
      <point x="60" y="680" type="line"/>
    </contour>
    <contour>
      <point x="435" y="140" type="line"/>
      <point x="808" y="683" type="line"/>
      <point x="719" y="700" type="line"/>
      <point x="603" y="700" type="line"/>
      <point x="339" y="309" type="line"/>
    </contour>
    <contour>
      <point x="623" y="0" type="line"/>
      <point x="808" y="0" type="line"/>
      <point x="808" y="700" type="line"/>
      <point x="623" y="700" type="line"/>
    </contour>
  </outline>
</glyph>
<glyph name="S" format="2">
  <advance width="600"/>
  <unicode hex="0053"/>
  <anchor x="305" y="0" name="bottom"/>
  <anchor x="305" y="700" name="top"/>
  <outline>
    <contour>
      <point x="305" y="-12" type="curve" smooth="yes"/>
      <point x="469" y="-12"/>
      <point x="568" y="65"/>
      <point x="568" y="203" type="curve" smooth="yes"/>
      <point x="568" y="303"/>
      <point x="505" y="388"/>
      <point x="398" y="415" type="curve" smooth="yes"/>
      <point x="292" y="442" type="line" smooth="yes"/>
      <point x="255" y="451"/>
      <point x="234" y="470"/>
      <point x="234" y="494" type="curve" smooth="yes"/>
      <point x="234" y="532"/>
      <point x="260" y="553"/>
      <point x="305" y="553" type="curve" smooth="yes"/>
      <point x="352" y="553"/>
      <point x="379" y="519"/>
      <point x="386" y="493" type="curve"/>
      <point x="569" y="546" type="line"/>
      <point x="521" y="664"/>
      <point x="436" y="712"/>
      <point x="305" y="712" type="curve" smooth="yes"/>
      <point x="140" y="712"/>
      <point x="44" y="631"/>
      <point x="44" y="494" type="curve" smooth="yes"/>
      <point x="44" y="389"/>
      <point x="107" y="314"/>
      <point x="216" y="286" type="curve" smooth="yes"/>
      <point x="321" y="259" type="line" smooth="yes"/>
      <point x="357" y="250"/>
      <point x="373" y="227"/>
      <point x="373" y="204" type="curve" smooth="yes"/>
      <point x="373" y="169"/>
      <point x="339" y="146"/>
      <point x="302" y="147" type="curve" smooth="yes"/>
      <point x="255" y="149"/>
      <point x="226" y="175"/>
      <point x="214" y="209" type="curve"/>
      <point x="30" y="158" type="line"/>
      <point x="44" y="67"/>
      <point x="173" y="-12"/>
    </contour>
  </outline>
</glyph>
<glyph name="W" format="2">
  <advance width="1008"/>
  <unicode hex="0057"/>
  <anchor x="503" y="670" name="top"/>
  <outline>
    <contour>
      <point x="625" y="0" type="line"/>
      <point x="800" y="0" type="line"/>
      <point x="1001" y="700" type="line"/>
      <point x="812" y="700" type="line"/>
    </contour>
    <contour>
      <point x="208" y="0" type="line"/>
      <point x="383" y="0" type="line"/>
      <point x="196" y="700" type="line"/>
      <point x="7" y="700" type="line"/>
    </contour>
    <contour>
      <point x="235" y="0" type="line"/>
      <point x="400" y="0" type="line"/>
      <point x="576" y="700" type="line"/>
      <point x="412" y="700" type="line"/>
    </contour>
    <contour>
      <point x="608" y="0" type="line"/>
      <point x="783" y="0" type="line"/>
      <point x="596" y="700" type="line"/>
      <point x="432" y="700" type="line"/>
    </contour>
  </outline>
</glyph>
<glyph name="bracketleft" format="2">
  <advance width="362"/>
  <unicode hex="005B"/>
  <outline>
    <contour>
      <point x="60" y="-100" type="line"/>
      <point x="322" y="-100" type="line"/>
      <point x="322" y="60" type="line"/>
      <point x="210" y="60" type="line"/>
      <point x="210" y="640" type="line"/>
      <point x="322" y="640" type="line"/>
      <point x="322" y="800" type="line"/>
      <point x="60" y="800" type="line"/>
    </contour>
  </outline>
</glyph>
<glyph name="asciicircum" format="2">
  <advance width="609"/>
  <unicode hex="005E"/>
  <outline>
    <contour>
      <point x="387" y="373" type="line"/>
      <point x="539" y="373" type="line"/>
      <point x="382" y="700" type="line"/>
      <point x="225" y="700" type="line"/>
    </contour>
    <contour>
      <point x="70" y="373" type="line"/>
      <point x="223" y="373" type="line"/>
      <point x="381" y="700" type="line"/>
      <point x="225" y="700" type="line"/>
    </contour>
  </outline>
</glyph>
<glyph name="a" format="2">
  <advance width="546"/>
  <unicode hex="0061"/>
  <anchor x="252" y="0" name="bottom"/>
  <anchor x="516" y="0" name="ogonek"/>
  <anchor x="252" y="500" name="top"/>
  <outline>
    <contour>
      <point x="337" y="0" type="line"/>
      <point x="506" y="0" type="line"/>
      <point x="506" y="281" type="line" smooth="yes"/>
      <point x="506" y="419"/>
      <point x="412" y="512"/>
      <point x="252" y="512" type="curve" smooth="yes"/>
      <point x="142" y="512"/>
      <point x="68" y="460"/>
      <point x="21" y="378" type="curve"/>
      <point x="180" y="328" type="line"/>
      <point x="201" y="356"/>
      <point x="218" y="368"/>
      <point x="248" y="368" type="curve" smooth="yes"/>
      <point x="328" y="368"/>
      <point x="331" y="315"/>
      <point x="332" y="245" type="curve" smooth="yes"/>
    </contour>
    <contour>
      <point x="204" y="-12" type="curve" smooth="yes"/>
      <point x="314" y="-12"/>
      <point x="379" y="69"/>
      <point x="379" y="214" type="curve"/>
      <point x="327" y="195" type="line"/>
      <point x="327" y="146"/>
      <point x="296" y="114"/>
      <point x="247" y="114" type="curve"/>
      <point x="217" y="114"/>
      <point x="200" y="125"/>
      <point x="200" y="145" type="curve"/>
      <point x="200" y="174"/>
      <point x="226" y="191"/>
      <point x="273" y="191" type="curve"/>
      <point x="351" y="191" type="line"/>
      <point x="351" y="294" type="line"/>
      <point x="204" y="294" type="line" smooth="yes"/>
      <point x="88" y="294"/>
      <point x="20" y="245"/>
      <point x="20" y="141" type="curve" smooth="yes"/>
      <point x="20" y="42"/>
      <point x="88" y="-12"/>
    </contour>
  </outline>
</glyph>
<glyph name="f" format="2">
  <advance width="415"/>
  <unicode hex="0066"/>
  <outline>
    <contour>
      <point x="95" y="0" type="line"/>
      <point x="275" y="0" type="line"/>
      <point x="275" y="507" type="line" smooth="yes"/>
      <point x="275" y="555"/>
      <point x="286" y="572"/>
      <point x="313" y="572" type="curve" smooth="yes"/>
      <point x="326" y="572"/>
      <point x="341" y="568"/>
      <point x="353" y="558" type="curve"/>
      <point x="420" y="683" type="line"/>
      <point x="387" y="704"/>
      <point x="329" y="724"/>
      <point x="278" y="724" type="curve" smooth="yes"/>
      <point x="154" y="724"/>
      <point x="95" y="654"/>
      <point x="95" y="543" type="curve" smooth="yes"/>
    </contour>
    <contour>
      <point x="20" y="360" type="line"/>
      <point x="378" y="360" type="line"/>
      <point x="378" y="500" type="line"/>
      <point x="20" y="500" type="line"/>
    </contour>
  </outline>
</glyph>
<glyph name="k" format="2">
  <advance width="586"/>
  <unicode hex="006B"/>
  <anchor x="287" y="0" name="bottom"/>
  <anchor x="293" y="800" name="top"/>
  <outline>
    <contour>
      <point x="215" y="95" type="line"/>
      <point x="566" y="500" type="line"/>
      <point x="356" y="500" type="line"/>
      <point x="110" y="220" type="line"/>
    </contour>
    <contour>
      <point x="45" y="0" type="line"/>
      <point x="225" y="0" type="line"/>
      <point x="225" y="700" type="line"/>
      <point x="45" y="700" type="line"/>
    </contour>
    <contour>
      <point x="369" y="0" type="line"/>
      <point x="576" y="0" type="line"/>
      <point x="343" y="323" type="line"/>
      <point x="225" y="200" type="line"/>
    </contour>
  </outline>
</glyph>
<glyph name="m" format="2">
  <advance width="891"/>
  <unicode hex="006D"/>
  <outline>
    <contour>
      <point x="45" y="0" type="line"/>
      <point x="225" y="0" type="line"/>
      <point x="225" y="408" type="line"/>
      <point x="215" y="500" type="line"/>
      <point x="45" y="500" type="line"/>
    </contour>
    <contour>
      <point x="358" y="0" type="line"/>
      <point x="538" y="0" type="line"/>
      <point x="538" y="286" type="line"/>
      <point x="358" y="256" type="line"/>
    </contour>
    <contour>
      <point x="671" y="0" type="line"/>
      <point x="851" y="0" type="line"/>
      <point x="851" y="286" type="line"/>
      <point x="671" y="256" type="line"/>
    </contour>
    <component base="arch" xOffset="183"/>
    <component base="arch" xOffset="496"/>
  </outline>
</glyph>
<glyph name="o" format="2">
  <advance width="583"/>
  <unicode hex="006F"/>
  <anchor x="286" y="0" name="bottom"/>
  <anchor x="286" y="250" name="center"/>
  <anchor x="526" y="10" name="ogonek"/>
  <anchor x="286" y="500" name="top"/>
  <anchor x="566" y="500" name="topright"/>
  <outline>
    <contour>
      <point x="293" y="-12" type="curve" smooth="yes"/>
      <point x="451" y="-12"/>
      <point x="563" y="96"/>
      <point x="563" y="250" type="curve" smooth="yes"/>
      <point x="563" y="404"/>
      <point x="451" y="512"/>
      <point x="291" y="512" type="curve" smooth="yes"/>
      <point x="132" y="512"/>
      <point x="20" y="404"/>
      <point x="20" y="250" type="curve" smooth="yes"/>
      <point x="20" y="96"/>
      <point x="133" y="-12"/>
    </contour>
    <contour>
      <point x="293" y="154" type="curve" smooth="yes"/>
      <point x="241" y="154"/>
      <point x="205" y="194"/>
      <point x="205" y="250" type="curve" smooth="yes"/>
      <point x="205" y="306"/>
      <point x="241" y="346"/>
      <point x="291" y="346" type="curve" smooth="yes"/>
      <point x="342" y="346"/>
      <point x="378" y="306"/>
      <point x="378" y="250" type="curve" smooth="yes"/>
      <point x="378" y="194"/>
      <point x="343" y="154"/>
    </contour>
  </outline>
</glyph>
<glyph name="q" format="2">
  <advance width="605"/>
  <unicode hex="0071"/>
  <outline>
    <contour>
      <point x="380" y="-200" type="line"/>
      <point x="560" y="-200" type="line"/>
      <point x="560" y="500" type="line"/>
      <point x="390" y="500" type="line"/>
      <point x="380" y="407" type="line"/>
    </contour>
    <component base="Bowl" xOffset="9"/>
  </outline>
</glyph>
<glyph name="v" format="2">
  <advance width="590"/>
  <unicode hex="0076"/>
  <outline>
    <contour>
      <point x="223" y="0" type="line"/>
      <point x="384" y="0" type="line"/>
      <point x="585" y="500" type="line"/>
      <point x="399" y="500" type="line"/>
    </contour>
    <contour>
      <point x="206" y="0" type="line"/>
      <point x="367" y="0" type="line"/>
      <point x="191" y="500" type="line"/>
      <point x="5" y="500" type="line"/>
    </contour>
  </outline>
</glyph>
<glyph name="x" format="2">
  <advance width="592"/>
  <unicode hex="0078"/>
  <outline>
    <contour>
      <point x="10" y="0" type="line"/>
      <point x="224" y="0" type="line"/>
      <point x="363" y="213" type="line"/>
      <point x="570" y="500" type="line"/>
      <point x="358" y="500" type="line"/>
      <point x="216" y="284" type="line"/>
    </contour>
    <contour>
      <point x="369" y="0" type="line"/>
      <point x="582" y="0" type="line"/>
      <point x="377" y="284" type="line"/>
      <point x="235" y="500" type="line"/>
      <point x="23" y="500" type="line"/>
      <point x="232" y="213" type="line"/>
    </contour>
  </outline>
</glyph>
<glyph name="braceleft" format="2">
  <advance width="402"/>
  <unicode hex="007B"/>
  <outline>
    <contour>
      <point x="50" y="339" type="line"/>
      <point x="242" y="339"/>
      <point x="290" y="374"/>
      <point x="290" y="513" type="curve" smooth="yes"/>
      <point x="290" y="631"/>
      <point x="302" y="661"/>
      <point x="352" y="662" type="curve"/>
      <point x="352" y="800" type="line"/>
      <point x="182" y="800"/>
      <point x="140" y="742"/>
      <point x="140" y="512" type="curve" smooth="yes"/>
      <point x="140" y="434"/>
      <point x="122" y="415"/>
      <point x="50" y="415" type="curve"/>
    </contour>
    <contour>
      <point x="352" y="-100" type="curve"/>
      <point x="352" y="38" type="line"/>
      <point x="303" y="39"/>
      <point x="291" y="69"/>
      <point x="291" y="187" type="curve" smooth="yes"/>
      <point x="291" y="326"/>
      <point x="243" y="361"/>
      <point x="50" y="361" type="curve"/>
      <point x="50" y="285" type="line"/>
      <point x="122" y="285"/>
      <point x="140" y="266"/>
      <point x="140" y="188" type="curve" smooth="yes"/>
      <point x="140" y="-42"/>
      <point x="182" y="-100"/>
    </contour>
  </outline>
</glyph>
<glyph name="brokenbar" format="2">
  <advance width="335"/>
  <unicode hex="00A6"/>
  <outline>
    <contour>
      <point x="100" y="350" type="line"/>
      <point x="235" y="350" type="line"/>
      <point x="235" y="790" type="line"/>
      <point x="100" y="790" type="line"/>
    </contour>
    <contour>
      <point x="100" y="-220" type="line"/>
      <point x="235" y="-220" type="line"/>
      <point x="235" y="220" type="line"/>
      <point x="100" y="220" type="line"/>
    </contour>
  </outline>
</glyph>
<glyph name="copyright" format="2">
  <advance width="773"/>
  <unicode hex="00A9"/>
  <outline>
    <contour>
      <point x="387" y="-11" type="curve" smooth="yes"/>
      <point x="598" y="-11"/>
      <point x="748" y="139"/>
      <point x="748" y="350" type="curve" smooth="yes"/>
      <point x="748" y="562"/>
      <point x="598" y="712"/>
      <point x="387" y="712" type="curve" smooth="yes"/>
      <point x="175" y="712"/>
      <point x="25" y="562"/>
      <point x="25" y="350" type="curve" smooth="yes"/>
      <point x="25" y="139"/>
      <point x="175" y="-11"/>
    </contour>
    <contour>
      <point x="388" y="152" type="curve" smooth="yes"/>
      <point x="457" y="152"/>
      <point x="518" y="192"/>
      <point x="551" y="261" type="curve"/>
      <point x="560" y="278" type="line"/>
      <point x="458" y="314" type="line"/>
      <point x="452" y="304" type="line"/>
      <point x="432" y="278"/>
      <point x="409" y="262"/>
      <point x="388" y="262" type="curve" smooth="yes"/>
      <point x="343" y="262"/>
      <point x="316" y="295"/>
      <point x="316" y="350" type="curve" smooth="yes"/>
      <point x="316" y="405"/>
      <point x="342" y="438"/>
      <point x="387" y="438" type="curve" smooth="yes"/>
      <point x="406" y="438"/>
      <point x="428" y="427"/>
      <point x="446" y="408" type="curve"/>
      <point x="458" y="391" type="line"/>
      <point x="557" y="428" type="line"/>
      <point x="545" y="453" type="line"/>
      <point x="510" y="513"/>
      <point x="451" y="548"/>
      <point x="387" y="548" type="curve" smooth="yes"/>
      <point x="271" y="548"/>
      <point x="202" y="474"/>
      <point x="202" y="350" type="curve" smooth="yes"/>
      <point x="202" y="226"/>
      <point x="271" y="152"/>
    </contour>
    <contour>
      <point x="387" y="99" type="curve" smooth="yes"/>
      <point x="242" y="99"/>
      <point x="139" y="203"/>
      <point x="139" y="350" type="curve" smooth="yes"/>
      <point x="139" y="498"/>
      <point x="242" y="602"/>
      <point x="387" y="602" type="curve" smooth="yes"/>
      <point x="532" y="602"/>
      <point x="634" y="498"/>
      <point x="634" y="350" type="curve" smooth="yes"/>
      <point x="634" y="203"/>
      <point x="532" y="99"/>
    </contour>
  </outline>
</glyph>
<glyph name="plusminus" format="2">
  <advance width="550"/>
  <unicode hex="00B1"/>
  <outline>
    <contour>
      <point x="205" y="178" type="line"/>
      <point x="345" y="178" type="line"/>
      <point x="345" y="608" type="line"/>
      <point x="205" y="608" type="line"/>
    </contour>
    <contour>
      <point x="40" y="328" type="line"/>
      <point x="510" y="328" type="line"/>
      <point x="510" y="458" type="line"/>
      <point x="40" y="458" type="line"/>
    </contour>
    <contour>
      <point x="40" y="30" type="line"/>
      <point x="510" y="30" type="line"/>
      <point x="510" y="150" type="line"/>
      <point x="40" y="150" type="line"/>
    </contour>
  </outline>
</glyph>
<glyph name="multiply" format="2">
  <advance width="536"/>
  <unicode hex="00D7"/>
  <outline>
    <contour>
      <point x="390" y="79" type="line"/>
      <point x="487" y="176" type="line"/>
      <point x="146" y="517" type="line"/>
      <point x="49" y="420" type="line"/>
    </contour>
    <contour>
      <point x="146" y="79" type="line"/>
      <point x="486" y="420" type="line"/>
      <point x="389" y="517" type="line"/>
      <point x="49" y="176" type="line"/>
    </contour>
  </outline>
</glyph>
<glyph name="ae" format="2">
  <advance width="889"/>
  <unicode hex="00E6"/>
  <anchor x="606" y="0" name="bottom"/>
  <anchor x="808" y="50" name="ogonek"/>
  <anchor x="618" y="500" name="top"/>
  <outline>
    <contour>
      <point x="344" y="116" type="line"/>
      <point x="513" y="116" type="line"/>
      <point x="519" y="281" type="line" smooth="yes"/>
      <point x="519" y="419"/>
      <point x="424" y="512"/>
      <point x="261" y="512" type="curve" smooth="yes"/>
      <point x="172" y="512"/>
      <point x="75" y="477"/>
      <point x="28" y="422" type="curve"/>
      <point x="132" y="315" type="line"/>
      <point x="165" y="346"/>
      <point x="211" y="359"/>
      <point x="254" y="359" type="curve" smooth="yes"/>
      <point x="341" y="359"/>
      <point x="344" y="310"/>
      <point x="345" y="245" type="curve" smooth="yes"/>
    </contour>
    <contour>
      <point x="217" y="-12" type="curve" smooth="yes"/>
      <point x="352" y="-12"/>
      <point x="432" y="69"/>
      <point x="432" y="214" type="curve"/>
      <point x="340" y="195" type="line"/>
      <point x="340" y="142"/>
      <point x="308" y="107"/>
      <point x="257" y="107" type="curve"/>
      <point x="223" y="107"/>
      <point x="204" y="121"/>
      <point x="204" y="145" type="curve"/>
      <point x="204" y="176"/>
      <point x="234" y="194"/>
      <point x="286" y="194" type="curve"/>
      <point x="364" y="194" type="line"/>
      <point x="364" y="294" type="line"/>
      <point x="217" y="294" type="line" smooth="yes"/>
      <point x="93" y="294"/>
      <point x="20" y="245"/>
      <point x="20" y="141" type="curve" smooth="yes"/>
      <point x="20" y="42"/>
      <point x="93" y="-12"/>
    </contour>
    <component base="e" xOffset="323"/>
  </outline>
</glyph>
<glyph name="thorn" format="2">
  <advance width="600"/>
  <unicode hex="00FE"/>
  <outline>
    <contour>
      <point x="55" y="-200" type="line"/>
      <point x="235" y="-200" type="line"/>
      <point x="235" y="700" type="line"/>
      <point x="55" y="700" type="line"/>
    </contour>
    <component base="Bowl" xScale="-1.0" xOffset="606.0"/>
  </outline>
</glyph>
<glyph name="ring" format="2">
  <advance width="600"/>
  <unicode hex="02DA"/>
  <anchor x="332" y="500" name="_top"/>
  <outline>
    <contour>
      <point x="332" y="520" type="curve" smooth="yes"/>
      <point x="405" y="520"/>
      <point x="469" y="577"/>
      <point x="469" y="649" type="curve" smooth="yes"/>
      <point x="469" y="722"/>
      <point x="405" y="779"/>
      <point x="332" y="779" type="curve" smooth="yes"/>
      <point x="258" y="779"/>
      <point x="194" y="722"/>
      <point x="194" y="649" type="curve" smooth="yes"/>
      <point x="194" y="577"/>
      <point x="258" y="520"/>
    </contour>
    <contour>
      <point x="332" y="616" type="curve" smooth="yes"/>
      <point x="311" y="616"/>
      <point x="299" y="629"/>
      <point x="299" y="649" type="curve" smooth="yes"/>
      <point x="299" y="670"/>
      <point x="311" y="683"/>
      <point x="332" y="683" type="curve" smooth="yes"/>
      <point x="352" y="683"/>
      <point x="364" y="670"/>
      <point x="364" y="649" type="curve" smooth="yes"/>
      <point x="364" y="629"/>
      <point x="352" y="616"/>
    </contour>
  </outline>
</glyph>
<glyph name="dotaccentcomb" format="2">
  <unicode hex="0307"/>
  <anchor x="100" y="500" name="_top"/>
  <outline>
    <contour>
      <point x="100" y="548" type="curve" smooth="yes"/>
      <point x="154" y="548"/>
      <point x="200" y="594"/>
      <point x="200" y="648" type="curve" smooth="yes"/>
      <point x="200" y="702"/>
      <point x="154" y="748"/>
      <point x="100" y="748" type="curve" smooth="yes"/>
      <point x="46" y="748"/>
      <point x="0" y="702"/>
      <point x="0" y="648" type="curve" smooth="yes"/>
      <point x="0" y="594"/>
      <point x="46" y="548"/>
    </contour>
  </outline>
</glyph>
<glyph name="ringcomb" format="2">
  <unicode hex="030A"/>
  <anchor x="178" y="500" name="_top"/>
  <outline>
    <contour>
      <point x="178" y="520" type="curve" smooth="yes"/>
      <point x="251" y="520"/>
      <point x="315" y="577"/>
      <point x="315" y="649" type="curve" smooth="yes"/>
      <point x="315" y="722"/>
      <point x="251" y="779"/>
      <point x="178" y="779" type="curve" smooth="yes"/>
      <point x="104" y="779"/>
      <point x="40" y="722"/>
      <point x="40" y="649" type="curve" smooth="yes"/>
      <point x="40" y="577"/>
      <point x="104" y="520"/>
    </contour>
    <contour>
      <point x="178" y="616" type="curve" smooth="yes"/>
      <point x="157" y="616"/>
      <point x="145" y="629"/>
      <point x="145" y="649" type="curve" smooth="yes"/>
      <point x="145" y="670"/>
      <point x="157" y="683"/>
      <point x="178" y="683" type="curve" smooth="yes"/>
      <point x="198" y="683"/>
      <point x="210" y="670"/>
      <point x="210" y="649" type="curve" smooth="yes"/>
      <point x="210" y="629"/>
      <point x="198" y="616"/>
    </contour>
  </outline>
</glyph>
<glyph name="bullet" format="2">
  <advance width="460"/>
  <unicode hex="2022"/>
  <outline>
    <contour>
      <point x="223" y="155" type="curve" smooth="yes"/>
      <point x="298" y="155"/>
      <point x="358" y="214"/>
      <point x="358" y="288" type="curve" smooth="yes"/>
      <point x="358" y="361"/>
      <point x="298" y="420"/>
      <point x="223" y="420" type="curve" smooth="yes"/>
      <point x="149" y="420"/>
      <point x="89" y="361"/>
      <point x="89" y="288" type="curve" smooth="yes"/>
      <point x="89" y="214"/>
      <point x="149" y="155"/>
    </contour>
  </outline>
</glyph>
<glyph name="rightArrow" format="2">
  <advance width="758"/>
  <unicode hex="2192"/>
  <outline>
    <contour>
      <point x="567" y="217" type="line"/>
      <point x="703" y="297" type="line"/>
      <point x="434" y="592" type="line"/>
      <point x="326" y="486" type="line"/>
    </contour>
    <contour>
      <point x="60" y="223" type="line"/>
      <point x="610" y="223" type="line"/>
      <point x="610" y="373" type="line"/>
      <point x="60" y="373" type="line"/>
    </contour>
    <contour>
      <point x="428" y="8" type="line"/>
      <point x="703" y="297" type="line"/>
      <point x="568" y="381" type="line"/>
      <point x="322" y="115" type="line"/>
    </contour>
  </outline>
</glyph>
<glyph name="greaterequal" format="2">
  <advance width="521"/>
  <unicode hex="2265"/>
  <outline>
    <contour>
      <point x="70" y="0" type="line"/>
      <point x="471" y="0" type="line"/>
      <point x="471" y="120" type="line"/>
      <point x="70" y="120" type="line"/>
    </contour>
    <component base="greater" yScale="0.9" yOffset="90.0"/>
  </outline>
</glyph>
<glyph name="Bowl" format="2">
  <advance width="585"/>
  <outline>
    <contour>
      <point x="237" y="-12" type="curve" smooth="yes"/>
      <point x="361" y="-12"/>
      <point x="419" y="85"/>
      <point x="419" y="250" type="curve" smooth="yes"/>
      <point x="419" y="415"/>
      <point x="361" y="512"/>
      <point x="237" y="512" type="curve" smooth="yes"/>
      <point x="95" y="512"/>
      <point x="11" y="415"/>
      <point x="11" y="250" type="curve" smooth="yes"/>
      <point x="11" y="85"/>
      <point x="95" y="-12"/>
    </contour>
    <contour>
      <point x="285" y="154" type="curve" smooth="yes"/>
      <point x="236" y="154"/>
      <point x="200" y="194"/>
      <point x="199" y="250" type="curve" smooth="yes"/>
      <point x="200" y="306"/>
      <point x="235" y="345"/>
      <point x="284" y="345" type="curve" smooth="yes"/>
      <point x="335" y="345"/>
      <point x="371" y="306"/>
      <point x="371" y="250" type="curve" smooth="yes"/>
      <point x="371" y="194"/>
      <point x="335" y="154"/>
    </contour>
  </outline>
</glyph>
<glyph name="caroncomb.alt" format="2">
  <anchor x="0" y="700" name="_top_caron"/>
  <outline>
    <contour>
      <point x="15" y="552" type="line"/>
      <point x="145" y="552" type="line"/>
      <point x="188" y="700" type="line"/>
      <point x="38" y="700" type="line"/>
    </contour>
  </outline>
</glyph>
<glyph name="five.numr" format="2">
  <advance width="365"/>
  <outline>
    <contour>
      <point x="185" y="273" type="curve" smooth="yes"/>
      <point x="278" y="273"/>
      <point x="344" y="335"/>
      <point x="344" y="426" type="curve" smooth="yes"/>
      <point x="344" y="497"/>
      <point x="291" y="545"/>
      <point x="233" y="547" type="curve" smooth="yes"/>
      <point x="139" y="550"/>
      <point x="96" y="482"/>
      <point x="89" y="460" type="curve"/>
      <point x="139" y="445" type="line"/>
      <point x="185" y="696" type="line"/>
      <point x="63" y="696" type="line"/>
      <point x="86" y="588" type="line"/>
      <point x="318" y="588" type="line"/>
      <point x="318" y="700" type="line"/>
      <point x="63" y="700" type="line"/>
      <point x="31" y="460" type="line"/>
      <point x="142" y="436" type="line"/>
      <point x="148" y="450"/>
      <point x="159" y="458"/>
      <point x="175" y="458" type="curve" smooth="yes"/>
      <point x="200" y="458"/>
      <point x="215" y="438"/>
      <point x="215" y="418" type="curve" smooth="yes"/>
      <point x="215" y="394"/>
      <point x="199" y="379"/>
      <point x="176" y="379" type="curve" smooth="yes"/>
      <point x="159" y="379"/>
      <point x="144" y="386"/>
      <point x="142" y="399" type="curve"/>
      <point x="21" y="377" type="line"/>
      <point x="35" y="312"/>
      <point x="117" y="273"/>
    </contour>
  </outline>
</glyph>
<glyph name="g.001" format="2">
  <advance width="614"/>
  <outline>
    <contour>
      <point x="292" y="-214" type="curve" smooth="yes"/>
      <point x="454" y="-214"/>
      <point x="569" y="-124"/>
      <point x="569" y="40" type="curve" smooth="yes"/>
      <point x="569" y="500" type="line"/>
      <point x="389" y="500" type="line"/>
      <point x="389" y="32" type="line" smooth="yes"/>
      <point x="389" y="-21"/>
      <point x="349" y="-65"/>
      <point x="292" y="-65" type="curve" smooth="yes"/>
      <point x="232" y="-65"/>
      <point x="189" y="-43"/>
      <point x="173" y="1" type="curve"/>
      <point x="24" y="-65" type="line"/>
      <point x="49" y="-150"/>
      <point x="160" y="-214"/>
    </contour>
    <contour>
      <point x="246" y="24" type="curve" smooth="yes"/>
      <point x="360" y="24"/>
      <point x="428" y="108"/>
      <point x="428" y="250" type="curve" smooth="yes"/>
      <point x="428" y="415"/>
      <point x="360" y="512"/>
      <point x="246" y="512" type="curve" smooth="yes"/>
      <point x="104" y="512"/>
      <point x="20" y="416"/>
      <point x="20" y="254" type="curve" smooth="yes"/>
      <point x="20" y="110"/>
      <point x="104" y="24"/>
    </contour>
    <contour>
      <point x="301" y="173" type="curve" smooth="yes"/>
      <point x="253" y="173"/>
      <point x="220" y="210"/>
      <point x="219" y="261" type="curve" smooth="yes"/>
      <point x="220" y="314"/>
      <point x="252" y="350"/>
      <point x="300" y="350" type="curve" smooth="yes"/>
      <point x="349" y="350"/>
      <point x="380" y="314"/>
      <point x="380" y="261" type="curve" smooth="yes"/>
      <point x="380" y="210"/>
      <point x="350" y="173"/>
    </contour>
  </outline>
</glyph>
<glyph name="seven.numr" format="2">
  <advance width="356"/>
  <outline>
    <contour>
      <point x="70" y="280" type="line"/>
      <point x="207" y="280" type="line"/>
      <point x="335" y="615" type="line"/>
      <point x="196" y="587" type="line"/>
    </contour>
    <contour>
      <point x="18" y="587" type="line"/>
      <point x="196" y="587" type="line"/>
      <point x="335" y="615" type="line"/>
      <point x="335" y="700" type="line"/>
      <point x="18" y="700" type="line"/>
    </contour>
  </outline>
</glyph>
<glyph name="two.numr" format="2">
  <advance width="372"/>
  <outline>
    <contour>
      <point x="150" y="345" type="line"/>
      <point x="156" y="357"/>
      <point x="194" y="395"/>
      <point x="220" y="411" type="curve" smooth="yes"/>
      <point x="255" y="433" type="line" smooth="yes"/>
      <point x="307" y="466"/>
      <point x="347" y="502"/>
      <point x="347" y="567" type="curve" smooth="yes"/>
      <point x="347" y="651"/>
      <point x="285" y="708"/>
      <point x="180" y="708" type="curve" smooth="yes"/>
      <point x="85" y="708"/>
      <point x="24" y="648"/>
      <point x="14" y="581" type="curve"/>
      <point x="141" y="561" type="line"/>
      <point x="146" y="581"/>
      <point x="161" y="595"/>
      <point x="179" y="595" type="curve" smooth="yes"/>
      <point x="210" y="595"/>
      <point x="221" y="583"/>
      <point x="221" y="566" type="curve" smooth="yes"/>
      <point x="221" y="544"/>
      <point x="190" y="524"/>
      <point x="169" y="511" type="curve" smooth="yes"/>
      <point x="137" y="491" type="line" smooth="yes"/>
      <point x="76" y="453"/>
      <point x="29" y="394"/>
      <point x="29" y="365" type="curve"/>
    </contour>
    <contour>
      <point x="29" y="280" type="line"/>
      <point x="351" y="280" type="line"/>
      <point x="351" y="388" type="line"/>
      <point x="120" y="388" type="line"/>
      <point x="29" y="365" type="line"/>
    </contour>
  </outline>
</glyph>
